<svg width="106" height="28" viewBox="0 0 106 28" fill="none" xmlns="http://www.w3.org/2000/svg">
<path d="M0 22.5615V0H46.5412V4.63104L0 4.74979V6.53096H4.47126H10.2953H16.0052V11.2807H4.47126V22.5615H0Z" fill="white"/>
<path d="M19.772 22.5615V8.9771C19.772 8.32796 19.9239 7.74215 20.2277 7.21968C20.5314 6.68137 20.9415 6.25389 21.458 5.93723C21.9744 5.62058 22.5364 5.46226 23.1439 5.46226H32.7814C33.4041 5.46226 33.9661 5.62058 34.4673 5.93723C34.9838 6.25389 35.3939 6.68137 35.6977 7.21968C36.0166 7.74215 36.1761 8.32796 36.1761 8.9771V22.5615H32.5991V17.0517H23.3034V22.5615H19.772ZM23.3034 13.3469H32.5991V9.16709H23.3034V13.3469Z" fill="white"/>
<path d="M42.5768 22.5615C41.9693 22.5615 41.4073 22.4032 40.8909 22.0865C40.3744 21.7699 39.9643 21.3424 39.6606 20.8041C39.3568 20.2658 39.2049 19.68 39.2049 19.0466V17.4555H42.7363V18.8567H52.032V15.8643H42.5768C41.9693 15.8643 41.4073 15.706 40.8909 15.3893C40.3744 15.0727 39.9643 14.6531 39.6606 14.1306C39.3568 13.5923 39.2049 12.9986 39.2049 12.3495V8.9771C39.2049 8.32796 39.3568 7.74215 39.6606 7.21968C39.9643 6.68137 40.3744 6.25389 40.8909 5.93723C41.4073 5.62058 41.9693 5.46226 42.5768 5.46226H52.237C52.8446 5.46226 53.399 5.62058 53.9002 5.93723C54.4167 6.25389 54.8268 6.68137 55.1306 7.21968C55.4495 7.74215 55.609 8.32796 55.609 8.9771V10.5683H52.032V9.16709H42.7363V12.1595H52.237C52.8446 12.1595 53.399 12.3178 53.9002 12.6344C54.4167 12.9511 54.8268 13.3786 55.1306 13.9169C55.4495 14.4394 55.609 15.0252 55.609 15.6743V19.0466C55.609 19.68 55.4495 20.2658 55.1306 20.8041C54.8268 21.3424 54.4167 21.7699 53.9002 22.0865C53.399 22.4032 52.8446 22.5615 52.237 22.5615H42.5768Z" fill="white"/>
<path fill-rule="evenodd" clip-rule="evenodd" d="M59.7471 5.46226V22.5615H64.1898V5.46226H59.7471ZM61.5722 4.63104H102.582L106 2.37489L102.582 0H46.5412V4.63104H61.5722Z" fill="white"/>
<path d="M71.4146 22.5615C70.8071 22.5615 70.2527 22.4032 69.7515 22.0865C69.2502 21.7699 68.8477 21.3503 68.5439 20.8278C68.2553 20.3053 68.111 19.7354 68.111 19.1179V13.8456H78.0219V12.4207H68.111V8.78711H78.2041C78.8117 8.78711 79.3661 8.94543 79.8673 9.26209C80.3686 9.57874 80.7635 9.9983 81.0521 10.5208C81.3559 11.0433 81.5077 11.6132 81.5077 12.2307V22.5615H71.4146ZM71.5969 18.9279H78.0219V17.028H71.5969V18.9279Z" fill="white"/>
<path d="M39.2049 28L36.1761 26.1238L39.2049 24.9364L95.1095 24.3427V22.5615H88.5023C87.8947 22.5615 87.3403 22.4032 86.8391 22.0865C86.3378 21.7699 85.9353 21.3503 85.6316 20.8278C85.3278 20.3053 85.1759 19.7354 85.1759 19.1179V12.2307C85.1759 11.6132 85.3278 11.0433 85.6316 10.5208C85.9353 9.9983 86.3378 9.57874 86.8391 9.26209C87.3403 8.94543 87.8947 8.78711 88.5023 8.78711H95.2918C95.8993 8.78711 96.4537 8.94543 96.955 9.26209C97.4562 9.57874 97.8511 9.9983 98.1397 10.5208C98.4435 11.0433 98.5954 11.6132 98.5954 12.2307V24.5564C98.5954 25.1897 98.4435 25.7676 98.1397 26.2901C97.8511 26.8126 97.4562 27.2242 96.955 27.525C96.4537 27.8417 95.8993 28 95.2918 28H39.2049ZM88.6618 18.9279H95.1095V12.4207H88.6618V18.9279Z" fill="white"/>
<path d="M64.1898 5.46226H59.7471L61.5722 4.63104C61.5722 4.74979 64.1898 5.46226 64.1898 5.46226Z" fill="#05031D"/>
</svg>
